<svg width="25" height="34" viewBox="0 0 25 34" fill="none" xmlns="http://www.w3.org/2000/svg">
<g filter="url(#filter0_d_1_95)">
<path d="M19.4258 14.807C19.2163 14.5974 18.9714 14.4208 18.7069 14.2844L18.3782 13.1703L11.7954 13.1243L11.5432 14.0207C11.1595 14.0987 10.6879 14.3403 10.3987 14.6106L7.43181 11.3619C6.76055 11.661 6.29058 12.3314 6.29058 13.1144V13.9032L3.00411 17.326L3.01725 19.1237L11.2203 27.9389C11.2203 27.9389 19.8621 15.378 19.8826 15.4026C19.7783 15.2186 19.4628 14.825 19.4258 14.807V14.807Z" fill="#EF9645"/>
<path d="M17.4449 13.9721H12.0378C11.8669 13.9721 11.7001 13.9894 11.5391 14.0222L11.4791 13.7938L8.78994 3.55316C8.78994 3.55316 8.44815 1.94525 10.0552 1.60428C11.6623 1.26249 12.0041 2.86957 12.0041 2.86957L14.5487 12.3749C14.9151 12.3946 15.27 12.4266 15.6209 12.4628L17.3142 3.82594C17.3142 3.82594 17.4687 2.19009 19.1054 2.34374C20.7412 2.4982 20.5867 4.13404 20.5867 4.13404L18.8901 13.3041L18.7085 14.2851C18.3273 14.0921 17.9017 13.9721 17.4449 13.9721ZM4.57422 12.3289H4.71225C5.58235 12.3289 6.28647 13.0338 6.28647 13.9039V17.3268C6.28647 18.1969 5.58235 18.9018 4.71225 18.9018H4.57422C3.70413 18.9018 3 18.1969 3 17.3268V13.9039C3 13.0338 3.70413 12.3289 4.57422 12.3289ZM10.2582 14.7609L10.2122 14.8118C9.82272 15.2464 9.57295 15.8068 9.57295 16.437C9.57295 16.4887 9.58363 16.538 9.58774 16.589C9.62389 17.146 9.84079 17.6505 10.1859 18.0465C10.1275 18.1525 10.052 18.2462 9.97308 18.3365C9.67236 18.6792 9.24183 18.9018 8.75133 18.9018C7.84426 18.9018 7.10809 18.1656 7.10809 17.2586V12.3289C7.10809 11.9665 7.22887 11.6346 7.4277 11.3626C7.72677 10.9543 8.20577 10.6856 8.75133 10.6856C9.6584 10.6856 10.3946 11.4218 10.3946 12.3289V14.6113C10.3444 14.6565 10.305 14.7124 10.2582 14.7609V14.7609Z" fill="#FFDC5D"/>
<path d="M4.69418 19.7235C5.53551 19.7235 6.27579 19.2913 6.70714 18.6373C6.8082 18.7876 6.9298 18.9216 7.06126 19.0456C8.03488 19.9617 9.55405 19.9034 10.4849 18.975C10.6098 18.8501 10.7339 18.7244 10.8292 18.574L10.8267 18.5716C10.9919 18.666 11.2162 18.9019 12.0378 18.9019H14.1222C13.8182 19.1311 13.5405 19.4137 13.2809 19.7235C12.272 20.9288 11.627 22.6862 11.627 24.6532C11.627 24.8799 11.811 25.064 12.0378 25.064C12.2646 25.064 12.4486 24.8799 12.4486 24.6532C12.4486 22.5597 13.2341 20.73 14.4016 19.7235C15.003 19.205 15.703 18.9019 16.454 18.9019C17.0398 18.9668 17.1499 18.0802 16.5567 18.0802H12.0378C11.1307 18.0802 10.3946 17.3441 10.3946 16.437C10.3946 15.5299 11.1307 14.7938 12.0378 14.7938H18.6107C19.3157 14.7938 19.9746 15.2834 20.1825 15.9564L21.0756 18.9019C21.1602 19.1771 21.4692 20.4391 21.4133 20.702C21.4133 24.6532 17.555 28.7613 12.8594 28.7613C7.4885 28.7613 3.12817 24.4634 3.0115 19.1204L3.023 19.1286C3.44614 19.4942 3.98923 19.7235 4.5923 19.7235H4.69418Z" fill="#FFDC5D"/>
</g>
<defs>
<filter id="filter0_d_1_95" x="0" y="0.55658" width="24.42" height="33.2047" filterUnits="userSpaceOnUse" color-interpolation-filters="sRGB">
<feFlood flood-opacity="0" result="BackgroundImageFix"/>
<feColorMatrix in="SourceAlpha" type="matrix" values="0 0 0 0 0 0 0 0 0 0 0 0 0 0 0 0 0 0 127 0" result="hardAlpha"/>
<feOffset dy="2"/>
<feGaussianBlur stdDeviation="1.5"/>
<feComposite in2="hardAlpha" operator="out"/>
<feColorMatrix type="matrix" values="0 0 0 0 0 0 0 0 0 0 0 0 0 0 0 0 0 0 0.13 0"/>
<feBlend mode="normal" in2="BackgroundImageFix" result="effect1_dropShadow_1_95"/>
<feBlend mode="normal" in="SourceGraphic" in2="effect1_dropShadow_1_95" result="shape"/>
</filter>
</defs>
</svg>
