<svg width="462" height="462" viewBox="0 0 462 462" fill="none" xmlns="http://www.w3.org/2000/svg">
<path d="M300.596 427.747H257.888C257.766 427.747 257.648 427.699 257.562 427.612C257.475 427.525 257.426 427.408 257.426 427.285C257.426 427.163 257.475 427.045 257.562 426.959C257.648 426.872 257.766 426.823 257.888 426.823H300.596C300.656 426.823 300.716 426.835 300.772 426.858C300.829 426.882 300.879 426.916 300.922 426.959C300.965 427.002 300.999 427.052 301.023 427.109C301.046 427.165 301.058 427.225 301.058 427.285C301.058 427.346 301.046 427.406 301.023 427.462C300.999 427.518 300.965 427.569 300.922 427.612C300.879 427.655 300.829 427.689 300.772 427.712C300.716 427.735 300.656 427.747 300.596 427.747Z" fill="#404B7C"/>
<path d="M182.592 427.747H139.894C139.771 427.747 139.654 427.699 139.567 427.612C139.48 427.525 139.432 427.408 139.432 427.285C139.432 427.163 139.48 427.045 139.567 426.959C139.654 426.872 139.771 426.823 139.894 426.823H182.601C182.723 426.825 182.84 426.874 182.926 426.962C183.012 427.049 183.059 427.167 183.058 427.29C183.057 427.412 183.007 427.529 182.92 427.615C182.832 427.701 182.714 427.749 182.592 427.747V427.747Z" fill="#404B7C"/>
<path d="M273.744 430.584H207.124C207.001 430.584 206.884 430.535 206.797 430.449C206.711 430.362 206.662 430.245 206.662 430.122C206.662 429.999 206.711 429.882 206.797 429.795C206.884 429.709 207.001 429.66 207.124 429.66H273.744C273.867 429.66 273.984 429.709 274.071 429.795C274.158 429.882 274.206 429.999 274.206 430.122C274.206 430.245 274.158 430.362 274.071 430.449C273.984 430.535 273.867 430.584 273.744 430.584Z" fill="#404B7C"/>
<path d="M136.558 430.584H119.27C119.147 430.584 119.03 430.535 118.943 430.449C118.857 430.362 118.808 430.245 118.808 430.122C118.808 429.999 118.857 429.882 118.943 429.795C119.03 429.709 119.147 429.66 119.27 429.66H136.558C136.619 429.66 136.679 429.672 136.735 429.695C136.791 429.718 136.842 429.752 136.885 429.795C136.928 429.838 136.962 429.889 136.985 429.945C137.008 430.001 137.02 430.061 137.02 430.122C137.02 430.183 137.008 430.243 136.985 430.299C136.962 430.355 136.928 430.406 136.885 430.449C136.842 430.492 136.791 430.526 136.735 430.549C136.679 430.572 136.619 430.584 136.558 430.584Z" fill="#404B7C"/>
<path d="M148.099 247.207C148.099 247.207 163.733 265.105 201.072 262.527C238.41 259.949 248.824 239.427 248.824 239.427L239.796 197.616L163.788 207.29L148.099 247.207Z" fill="#91B41C"/>
<path d="M222.49 387.017L221.889 400.877C220.843 401.482 219.656 401.8 218.447 401.8C217.239 401.8 216.052 401.482 215.006 400.877L213.971 385.992L222.49 387.017Z" fill="#ECBDBB"/>
<path d="M209.85 413.028C209.58 417.482 209.956 421.951 210.968 426.297H213.98C213.98 426.297 215.357 418.184 216.909 414.571C218.461 410.958 211.31 409.822 209.85 413.028Z" fill="#0D1D54"/>
<path d="M213.971 398.808C213.971 398.808 217.242 400.443 222.915 398.808C222.915 398.808 232.21 414.469 235.389 417.288C238.568 420.106 245.553 423.22 247.946 424.513C250.339 425.807 231.942 426.749 227.618 425.973C223.294 425.197 219.699 419.782 216.087 416.853C214.204 415.247 212.085 413.941 209.803 412.982C209.803 412.982 210.792 404.998 213.971 398.808Z" fill="#F68D88"/>
<path d="M236.544 201.783C236.544 201.783 242.134 231.12 241.358 243.252C240.582 255.384 233.874 307.008 233.874 307.008L225.354 388.32C225.354 388.32 215.68 390.168 211.162 387.673C211.162 387.673 209.739 364.961 208.196 353.088C206.653 341.215 208.196 329.859 209.231 320.434C209.231 320.434 202.652 281.201 201.099 246.616C199.547 212.03 204.195 192.931 217.62 191.638C231.046 190.344 236.544 201.783 236.544 201.783Z" fill="#0D1D54"/>
<path d="M215.523 386.02C215.408 386.02 215.297 385.978 215.212 385.901C215.126 385.824 215.072 385.718 215.061 385.604C214.932 384.366 211.79 355.204 211.966 348.034C212.141 340.864 214.183 320.841 214.202 320.637L208.658 245.396C208.653 245.335 208.661 245.274 208.68 245.217C208.7 245.159 208.73 245.106 208.77 245.06C208.851 244.967 208.965 244.91 209.087 244.902C209.21 244.893 209.331 244.933 209.423 245.014C209.516 245.095 209.573 245.209 209.582 245.331L215.126 320.656C215.126 320.933 213.056 340.928 212.89 348.062C212.723 355.195 215.948 385.206 215.985 385.511C215.998 385.633 215.963 385.754 215.886 385.849C215.81 385.944 215.7 386.006 215.578 386.02H215.532H215.523Z" fill="#91B41C"/>
<path d="M164.232 387.017L162.624 401.94C161.578 402.544 160.39 402.862 159.182 402.862C157.974 402.862 156.787 402.544 155.74 401.94V385.983L164.232 387.017Z" fill="#ECBDBB"/>
<path d="M150.547 414.035C150.277 418.489 150.654 422.958 151.665 427.304H154.678C154.678 427.304 156.054 419.191 157.607 415.578C159.159 411.965 152.016 410.847 150.547 414.035Z" fill="#0D1D54"/>
<path d="M154.678 399.843C154.678 399.843 157.949 401.478 163.622 399.843C163.622 399.843 172.917 415.504 176.096 418.323C179.274 421.141 186.26 424.255 188.653 425.548C191.046 426.842 172.649 427.784 168.325 427.008C164.001 426.232 160.406 420.817 156.794 417.888C154.911 416.282 152.792 414.976 150.51 414.017C150.51 414.017 151.536 406.033 154.678 399.843Z" fill="#F68D88"/>
<path d="M207.845 217.962L205.59 248.334C205.59 248.334 185.585 306.491 181.455 319.14C177.325 331.79 168.168 386.417 168.168 386.417C168.168 386.417 165.396 388.949 159.39 388.949C153.384 388.949 151.998 386.075 151.998 386.075C151.998 386.075 150.704 344.948 151.998 334.331C153.292 323.714 157.422 307.747 157.681 300.263C157.939 292.779 157.422 251.744 159.233 234.659C161.044 217.574 169.037 191.351 187.498 191.453C205.96 191.554 208.741 205.895 207.845 217.962Z" fill="#0D1D54"/>
<path d="M156.507 384.809C156.446 384.808 156.387 384.795 156.331 384.77C156.275 384.746 156.225 384.711 156.183 384.667C156.141 384.624 156.108 384.572 156.086 384.515C156.064 384.459 156.053 384.399 156.054 384.338C156.054 384.088 156.405 359.233 156.914 346.297C157.302 336.355 159.196 323.779 160.443 315.463C160.841 312.82 161.183 310.538 161.367 308.921C162.153 302.832 163.77 290.164 163.77 280.277C163.77 270.566 167.688 219.672 167.724 219.154C167.728 219.093 167.744 219.033 167.771 218.978C167.798 218.924 167.836 218.875 167.883 218.835C167.93 218.795 167.984 218.765 168.042 218.747C168.101 218.729 168.162 218.723 168.223 218.729C168.284 218.734 168.343 218.751 168.398 218.778C168.452 218.806 168.5 218.844 168.54 218.89C168.579 218.937 168.609 218.99 168.628 219.048C168.647 219.106 168.654 219.168 168.648 219.228C168.648 219.736 164.694 270.603 164.694 280.277C164.694 290.256 163.068 302.961 162.282 309.069C162.07 310.695 161.728 312.987 161.358 315.638C160.111 323.954 158.226 336.484 157.838 346.371C157.329 359.307 156.978 384.135 156.978 384.384C156.969 384.502 156.915 384.611 156.827 384.69C156.74 384.769 156.625 384.812 156.507 384.809Z" fill="#91B41C"/>
<path d="M205.59 248.796C205.496 248.795 205.404 248.766 205.328 248.711C205.251 248.657 205.193 248.581 205.16 248.492C205.128 248.404 205.124 248.308 205.148 248.217C205.172 248.126 205.223 248.044 205.294 247.983L208.842 245.017C209.588 244.392 210.198 243.621 210.635 242.752C211.072 241.883 211.326 240.934 211.383 239.963L212.751 215.625C212.758 215.502 212.814 215.388 212.906 215.306C212.998 215.225 213.118 215.183 213.241 215.19C213.363 215.198 213.478 215.253 213.559 215.345C213.641 215.437 213.682 215.558 213.675 215.68L212.307 240.018C212.245 241.117 211.959 242.19 211.466 243.174C210.974 244.158 210.285 245.03 209.443 245.738L205.895 248.704C205.807 248.77 205.699 248.803 205.59 248.796Z" fill="#91B41C"/>
<path d="M205.59 248.796C205.469 248.787 205.357 248.73 205.277 248.638C205.198 248.547 205.157 248.428 205.165 248.307L207.42 216.327C207.423 216.267 207.439 216.208 207.465 216.153C207.492 216.099 207.529 216.051 207.575 216.011C207.62 215.971 207.673 215.941 207.731 215.923C207.788 215.904 207.849 215.897 207.909 215.902C208.03 215.911 208.143 215.968 208.222 216.06C208.302 216.151 208.342 216.27 208.334 216.392L206.052 248.362C206.045 248.48 205.993 248.59 205.907 248.671C205.821 248.752 205.708 248.796 205.59 248.796Z" fill="#91B41C"/>
<path d="M227.526 107.11C227.526 107.11 236.174 115.759 246.154 153.781L245.119 174.691C245.119 174.691 238.106 177.833 233.975 176.281C229.845 174.728 226.103 164.407 223.007 144.144C221.241 131.617 222.799 118.845 227.526 107.11V107.11Z" fill="#F68D88"/>
<path d="M243.465 152.922C241.201 155.621 239.603 158.814 238.801 162.244C237.998 165.674 238.013 169.245 238.845 172.668C240.942 181.372 246.893 182.73 246.893 182.73L253.435 179.201C253.435 179.201 256.835 170.727 256.142 162.467C255.449 154.206 251.827 149.688 251.827 149.688L243.465 152.922Z" fill="#404B7C"/>
<path d="M307.803 138.6C308.819 136.955 308.597 135.828 307.452 136.253C306.934 136.429 305.807 136.946 304.513 137.584C305.437 135.865 304.671 134.516 303.192 135.181C302.584 135.488 301.995 135.83 301.427 136.207C301.557 134.904 300.707 134.183 299.579 134.895C297.726 136.315 295.956 137.839 294.276 139.459L291.836 139.09C292.665 137.754 293.4 136.361 294.035 134.922C294.294 133.934 293.693 133.074 293.047 133.37C292.585 133.62 287.558 138.212 284.731 140.845C282.291 141.982 279.963 143.174 279.963 143.174L250.755 153.476C250.755 153.476 247.142 163.64 250.238 172.659C250.238 172.659 282.929 148.57 285.165 147.535C287.401 146.5 300.734 145.816 302.462 145.299C304.19 144.782 309.522 139.616 309.854 138.415C310.002 137.925 309.05 138.138 307.803 138.6Z" fill="#ECBDBB"/>
<path d="M302.407 141.446H302.324L294.183 139.894C294.061 139.87 293.952 139.799 293.882 139.696C293.812 139.593 293.786 139.466 293.809 139.344C293.832 139.221 293.903 139.113 294.006 139.043C294.109 138.973 294.236 138.946 294.359 138.97L302.361 140.494L307.627 138.147C307.683 138.118 307.744 138.1 307.807 138.095C307.87 138.09 307.933 138.099 307.993 138.119C308.053 138.14 308.107 138.172 308.154 138.215C308.201 138.257 308.238 138.309 308.264 138.366C308.29 138.424 308.304 138.486 308.305 138.549C308.306 138.612 308.294 138.675 308.27 138.733C308.245 138.791 308.21 138.844 308.164 138.888C308.119 138.932 308.065 138.966 308.006 138.988L302.61 141.39C302.547 141.424 302.478 141.443 302.407 141.446Z" fill="#404B7C"/>
<path d="M301.603 140.041C301.504 140.042 301.408 140.011 301.328 139.953C301.248 139.896 301.189 139.814 301.159 139.72C301.129 139.626 301.13 139.525 301.162 139.431C301.193 139.338 301.254 139.257 301.335 139.201L304.255 137.177C304.355 137.115 304.476 137.093 304.592 137.117C304.708 137.141 304.81 137.209 304.878 137.306C304.945 137.403 304.973 137.523 304.955 137.64C304.937 137.757 304.875 137.862 304.781 137.935L301.862 139.958C301.786 140.011 301.695 140.04 301.603 140.041V140.041Z" fill="#404B7C"/>
<path d="M298.526 139.034C298.43 139.036 298.335 139.007 298.256 138.952C298.177 138.897 298.117 138.819 298.085 138.729C298.052 138.638 298.048 138.54 298.075 138.447C298.101 138.354 298.155 138.272 298.23 138.212L301.132 135.828C301.226 135.75 301.348 135.712 301.47 135.723C301.53 135.729 301.589 135.746 301.643 135.774C301.697 135.803 301.744 135.841 301.783 135.888C301.822 135.935 301.851 135.989 301.869 136.047C301.887 136.105 301.893 136.166 301.888 136.226C301.882 136.287 301.865 136.346 301.837 136.399C301.808 136.453 301.77 136.501 301.723 136.539L298.822 138.933C298.738 139 298.633 139.036 298.526 139.034Z" fill="#404B7C"/>
<path d="M201.072 96.521L182.231 112.913C182.231 112.913 162.873 208.667 163.64 208.667C164.407 208.667 189.623 216.669 212.511 212.28C235.398 207.891 239.529 201.959 239.529 201.959L228.441 140.051L225.992 109.559L201.072 96.521Z" fill="#91B41C"/>
<path d="M197.736 214.045C186.638 213.904 175.603 212.352 164.897 209.425C164.287 209.268 163.761 209.129 163.65 209.12C163.589 209.12 163.53 209.108 163.474 209.084C163.419 209.061 163.368 209.027 163.326 208.984C163.284 208.941 163.251 208.89 163.229 208.834C163.206 208.778 163.196 208.718 163.197 208.658C163.199 208.534 163.25 208.417 163.338 208.33C163.426 208.244 163.545 208.196 163.668 208.196C164.16 208.269 164.646 208.383 165.119 208.538C187.72 214.414 203.335 213.573 212.446 211.818C234.89 207.512 239.131 201.746 239.168 201.654C239.201 201.6 239.245 201.555 239.296 201.519C239.348 201.483 239.406 201.458 239.467 201.445C239.529 201.432 239.592 201.432 239.653 201.445C239.715 201.457 239.773 201.482 239.824 201.518C239.876 201.554 239.92 201.6 239.953 201.653C239.986 201.706 240.008 201.765 240.017 201.827C240.027 201.889 240.024 201.953 240.008 202.013C239.992 202.074 239.964 202.131 239.926 202.18C239.75 202.43 235.426 208.325 212.622 212.696C207.713 213.613 202.729 214.065 197.736 214.045V214.045Z" fill="#404B7C"/>
<path d="M189.115 207.798C180.66 207.798 174.839 207.253 174.691 207.235C174.631 207.229 174.572 207.211 174.518 207.182C174.464 207.153 174.417 207.114 174.378 207.067C174.34 207.02 174.311 206.965 174.293 206.907C174.276 206.848 174.27 206.787 174.276 206.727C174.282 206.666 174.3 206.607 174.328 206.553C174.357 206.5 174.396 206.452 174.444 206.413C174.491 206.375 174.545 206.346 174.604 206.328C174.662 206.311 174.723 206.305 174.784 206.311C175.153 206.311 211.929 209.785 235.463 199.122C235.573 199.08 235.695 199.082 235.803 199.127C235.912 199.172 235.999 199.257 236.048 199.364C236.096 199.472 236.102 199.593 236.063 199.704C236.025 199.816 235.946 199.908 235.842 199.963C221.437 206.505 202.153 207.798 189.115 207.798Z" fill="#404B7C"/>
<path d="M201.072 172.021C198.836 211.079 184.033 243.262 184.033 243.262C169.406 251.522 148.099 247.216 148.099 247.216C148.099 247.216 162.014 191.129 165.451 168.408C168.889 145.687 171.522 112.146 171.522 112.146C171.522 112.146 185.779 99.6442 195.925 95.8003C195.463 100.624 193.744 120.582 195.472 134.858C197.459 151.194 201.072 172.021 201.072 172.021Z" fill="#F68D88"/>
<path d="M205.59 95.8003C213.273 98.8033 220.624 102.593 227.526 107.11V113.43C227.526 113.43 232.95 131.494 233.208 134.682C233.467 137.87 230.76 149.134 230.76 149.134C230.76 149.134 247.022 211.966 248.824 239.344C242.172 238.897 235.568 237.905 229.078 236.378C229.078 236.378 229.078 212.936 228.265 195.555C227.859 185.78 226.651 176.055 224.652 166.477C224.652 166.477 214.839 125.562 212.52 116.96C210.201 108.357 205.59 95.8003 205.59 95.8003Z" fill="#F68D88"/>
<path d="M236.35 172.409C236.26 172.41 236.173 172.38 236.103 172.324C236.032 172.269 235.983 172.191 235.962 172.104C232.876 158.974 230.418 149.374 230.372 149.272C230.356 149.209 230.356 149.142 230.372 149.078C230.372 148.967 233.061 137.879 232.811 134.747C232.562 131.615 227.202 113.717 227.147 113.495C227.142 113.458 227.142 113.421 227.147 113.384V108.93C227.147 108.825 227.189 108.724 227.263 108.649C227.338 108.575 227.439 108.533 227.544 108.533C227.65 108.533 227.751 108.575 227.825 108.649C227.9 108.724 227.942 108.825 227.942 108.93V113.319C228.33 114.622 233.365 131.467 233.615 134.636C233.864 137.805 231.462 147.942 231.176 149.115C231.444 150.15 233.827 159.436 236.72 171.864C236.732 171.915 236.734 171.968 236.726 172.02C236.718 172.072 236.699 172.121 236.672 172.166C236.644 172.211 236.608 172.249 236.566 172.28C236.523 172.311 236.475 172.333 236.424 172.345H236.332L236.35 172.409Z" fill="#ECBDBB"/>
<path d="M199.177 92.4C193.975 93.2131 189.457 104.791 187.517 115.029L193.347 120.36L187.517 130.681C187.517 130.681 196.248 152.534 201.062 171.975C201.062 171.975 198.826 140.319 197.274 122.846C197.579 104.911 205.83 104.255 212.501 121.127C218.97 139.801 224.634 166.468 224.634 166.468C224.634 166.468 225.317 139.801 223.95 125.433L215.347 118.808L217.925 112.1C217.925 112.1 209.073 90.8846 199.177 92.4Z" fill="#F68D88"/>
<path d="M224.643 166.911C224.591 166.91 224.539 166.899 224.492 166.878C224.444 166.857 224.401 166.826 224.365 166.788C224.329 166.751 224.3 166.706 224.281 166.658C224.263 166.609 224.254 166.557 224.255 166.505C224.255 166.237 224.92 139.903 223.58 125.682L215.107 119.196C215.04 119.144 214.991 119.072 214.968 118.991C214.945 118.909 214.948 118.823 214.978 118.743L217.5 112.183C215.528 107.689 213.048 103.435 210.108 99.5056C210.043 99.4223 210.014 99.3165 210.027 99.2117C210.04 99.1069 210.094 99.0115 210.178 98.9465C210.261 98.8816 210.367 98.8524 210.472 98.8654C210.576 98.8784 210.672 98.9325 210.737 99.0159C213.731 103.047 216.252 107.409 218.249 112.017C218.287 112.111 218.287 112.217 218.249 112.312L215.772 118.78L224.144 125.248C224.188 125.281 224.224 125.323 224.251 125.37C224.278 125.418 224.295 125.471 224.301 125.525C225.669 139.755 224.994 166.348 224.994 166.616C224.973 166.695 224.928 166.766 224.865 166.819C224.803 166.872 224.725 166.904 224.643 166.911Z" fill="#ECBDBB"/>
<path d="M199.085 164.989C198.999 164.989 198.916 164.961 198.848 164.909C198.78 164.857 198.73 164.785 198.706 164.703C193.874 147.738 187.221 131.042 187.156 130.875C187.131 130.822 187.118 130.764 187.118 130.704C187.118 130.645 187.131 130.587 187.156 130.533L192.83 120.48L187.23 115.361C187.18 115.315 187.143 115.257 187.122 115.192C187.101 115.128 187.097 115.059 187.11 114.992C188.121 109.168 189.989 103.526 192.654 98.2489C192.675 98.1972 192.707 98.1506 192.748 98.1121C192.788 98.0736 192.836 98.044 192.889 98.0254C192.942 98.0067 192.998 97.9994 193.053 98.0038C193.109 98.0083 193.163 98.0245 193.212 98.0513C193.261 98.0781 193.304 98.1149 193.338 98.1594C193.372 98.2038 193.396 98.255 193.408 98.3094C193.421 98.3638 193.422 98.4202 193.412 98.4751C193.401 98.53 193.379 98.582 193.347 98.6278C190.751 103.766 188.924 109.258 187.923 114.927L193.587 120.111C193.653 120.172 193.696 120.254 193.71 120.343C193.723 120.432 193.706 120.523 193.661 120.6L187.923 130.764C188.653 132.612 194.853 148.431 199.427 164.49C199.456 164.591 199.444 164.699 199.393 164.79C199.343 164.882 199.259 164.95 199.159 164.98L199.085 164.989Z" fill="#ECBDBB"/>
<path d="M171.522 112.137C165.655 116.868 161.404 132.622 171.522 144.92C180.568 155.916 204.684 177.824 209.97 178.859C215.255 179.894 220.55 173.176 220.55 173.176C220.55 173.176 221.067 158.226 219.385 155.056C218.971 154.17 218.36 153.389 217.6 152.773C216.839 152.157 215.949 151.721 214.996 151.499L211.513 153.56C211.513 153.56 196.424 131.384 188.542 123.493C183.639 118.664 177.863 114.811 171.522 112.137V112.137Z" fill="#F68D88"/>
<path d="M211.116 179.367C210.706 179.366 210.298 179.326 209.896 179.247C204.407 178.175 180.633 156.359 171.744 145.807C171.708 145.768 171.68 145.721 171.662 145.67C171.645 145.62 171.637 145.566 171.641 145.512C171.645 145.459 171.659 145.406 171.683 145.359C171.708 145.311 171.742 145.268 171.783 145.234C171.824 145.2 171.872 145.174 171.923 145.159C171.975 145.143 172.029 145.139 172.082 145.145C172.136 145.151 172.187 145.167 172.234 145.194C172.28 145.221 172.321 145.256 172.354 145.299C182.019 156.766 205.017 177.491 210.053 178.471C214.673 179.395 219.487 173.851 220.171 173.037C220.171 171.55 220.577 158.143 219.053 155.25C218.671 154.443 218.118 153.728 217.434 153.154C216.75 152.58 215.95 152.16 215.089 151.924L211.735 153.911C211.648 153.961 211.545 153.976 211.448 153.954C211.35 153.932 211.264 153.873 211.208 153.791C211.06 153.569 196.045 131.531 188.293 123.779C184.676 120.226 180.58 117.196 176.124 114.779C176.044 114.723 175.987 114.64 175.965 114.544C175.942 114.449 175.956 114.349 176.003 114.263C176.05 114.177 176.127 114.112 176.219 114.079C176.311 114.047 176.412 114.049 176.502 114.086C181.024 116.541 185.179 119.617 188.847 123.225C196.156 130.524 209.794 150.326 211.651 153.042L214.812 151.194C214.889 151.147 214.98 151.127 215.07 151.139C216.086 151.369 217.037 151.829 217.849 152.482C218.66 153.135 219.312 153.965 219.755 154.909C221.464 158.143 220.984 172.612 220.965 173.232C220.963 173.315 220.934 173.396 220.882 173.463C220.66 173.712 216.124 179.367 211.116 179.367Z" fill="#ECBDBB"/>
<path d="M211.809 151.869L219.958 146.731C219.958 146.731 225.133 148.727 226.75 156.47C228.367 164.213 225.826 172.862 225.826 172.862C225.826 172.862 218.203 178.803 218.203 178.609C214.358 175.91 211.479 172.05 209.988 167.595C207.115 159.529 211.809 151.869 211.809 151.869Z" fill="#404B7C"/>
<path d="M220.032 150.501L254.22 132.437C254.22 132.437 262.592 125.572 266.232 123.576C269.873 121.58 271.397 121.894 271.268 122.864C271.139 123.834 267.396 126.412 266.814 128.353C266.232 130.293 269.863 129.646 271.277 129.388C272.691 129.129 280.111 126.616 282.495 125.646C284.878 124.675 284.943 126.68 284.343 127.706C283.742 128.732 280.6 130.219 280.6 130.219C280.149 131.482 279.43 132.632 278.494 133.592C278.099 134.825 277.276 135.877 276.174 136.558C275.449 137.683 274.565 138.698 273.55 139.57C272.257 140.494 257.519 140.494 255.615 140.771C253.712 141.049 230.399 163.659 224.726 168.99C224.726 169 216.087 163.326 220.032 150.501Z" fill="#ECBDBB"/>
<path d="M272.866 133.851C272.744 133.874 272.617 133.848 272.514 133.777C272.411 133.707 272.34 133.599 272.317 133.476C272.293 133.354 272.32 133.227 272.39 133.124C272.46 133.021 272.568 132.95 272.691 132.927C274.539 132.197 278.66 130.432 278.66 130.432L279.02 131.282C279.02 131.282 274.844 133.047 273.033 133.777C272.983 133.812 272.926 133.837 272.866 133.851Z" fill="#404B7C"/>
<path d="M272.58 136.521C272.457 136.539 272.333 136.508 272.233 136.435C272.133 136.361 272.067 136.251 272.049 136.128C272.03 136.006 272.061 135.881 272.135 135.781C272.209 135.682 272.319 135.615 272.441 135.597C274.015 135.069 275.558 134.452 277.061 133.749C277.17 133.706 277.291 133.706 277.4 133.749C277.508 133.792 277.597 133.874 277.647 133.98C277.698 134.085 277.706 134.206 277.671 134.317C277.636 134.429 277.56 134.523 277.459 134.581C275.929 135.308 274.359 135.946 272.756 136.493L272.58 136.521Z" fill="#404B7C"/>
<path d="M271.018 138.794C270.958 138.801 270.896 138.795 270.838 138.778C270.779 138.761 270.724 138.733 270.677 138.695C270.581 138.618 270.519 138.505 270.506 138.383C270.492 138.26 270.528 138.137 270.605 138.041C270.682 137.945 270.794 137.884 270.917 137.87C272.224 137.507 273.505 137.057 274.751 136.521C274.808 136.495 274.869 136.48 274.931 136.477C274.993 136.475 275.055 136.485 275.113 136.508C275.171 136.53 275.224 136.563 275.269 136.607C275.314 136.65 275.349 136.702 275.373 136.759C275.398 136.816 275.41 136.878 275.41 136.94C275.41 137.002 275.397 137.063 275.373 137.121C275.348 137.178 275.313 137.229 275.268 137.272C275.223 137.316 275.17 137.349 275.112 137.371C273.816 137.932 272.482 138.401 271.12 138.776H271.018V138.794Z" fill="#0D1D54"/>
<path d="M188.94 61.908C188.94 61.908 185.197 54.71 179.256 53.2224C173.315 51.7348 169.388 57.8424 168.612 65.2898C167.835 72.7373 173.37 79.002 181.548 71.9334C188.034 66.3894 188.94 61.908 188.94 61.908Z" fill="#0D1D54"/>
<path d="M187.387 62.0004C187.387 62.0004 177.907 67.1656 178.942 75.768C179.977 84.3704 195.075 91.1249 203.206 86.2184C211.337 81.312 209.332 74.2804 209.332 74.2804C209.332 74.2804 216.493 73.6336 216.623 66.7313C216.752 59.829 213.204 58.6001 209.526 59.3393C209.526 59.3393 210.885 50.7553 202.947 49.9792C195.01 49.203 189.004 53.4811 187.387 62.0004Z" fill="#0D1D54"/>
<path d="M179.08 72.7927H178.988C178.929 72.7806 178.872 72.7569 178.822 72.7229C178.772 72.6889 178.728 72.6454 178.695 72.5948C178.661 72.5442 178.638 72.4874 178.627 72.4279C178.615 72.3683 178.616 72.307 178.628 72.2475C179.986 65.604 186.879 61.7694 187.165 61.6123C187.273 61.5535 187.4 61.5399 187.518 61.5746C187.636 61.6092 187.735 61.6893 187.794 61.7971C187.853 61.9049 187.866 62.0317 187.832 62.1495C187.797 62.2674 187.717 62.3666 187.609 62.4254C187.544 62.4254 180.808 66.2138 179.533 72.4416C179.508 72.5425 179.45 72.6321 179.368 72.6958C179.286 72.7595 179.184 72.7937 179.08 72.7927V72.7927Z" fill="#91B41C"/>
<path d="M212.52 121.173C211.759 123.979 209.98 126.4 207.53 127.965C201.986 127.54 197.292 122.892 197.292 122.892V104.735C197.228 99.792 196.082 87.8909 195.648 83.5481L195.481 81.9403L204.001 83.7883C204.001 83.7883 204.186 87.8077 204.537 92.2706C204.879 96.521 205.396 101.196 206.061 103.211C207.438 107.313 212.52 121.173 212.52 121.173Z" fill="#ECBDBB"/>
<path d="M204.527 92.2429C199.621 90.7276 196.997 86.7636 195.639 83.5481L195.472 81.9403L203.991 83.7883C203.991 83.7883 204.204 87.78 204.527 92.2429Z" fill="#404B7C"/>
<path d="M207.78 66.3247C210.183 70.5426 211.533 75.2781 211.716 80.1293C211.91 87.9371 205.719 88.7779 199.455 86.126C193.19 83.4741 189.291 74.5113 189.291 74.5113C189.291 74.5113 186.454 66.7682 191.675 63.2201C192.923 62.3276 194.339 61.6984 195.838 61.3708C197.337 61.0432 198.887 61.024 200.394 61.3145C201.9 61.6049 203.332 62.1989 204.602 63.0602C205.872 63.9215 206.953 65.0322 207.78 66.3247V66.3247Z" fill="#ECBDBB"/>
<path d="M192.488 65.6779C192.488 65.6779 200.804 72.2568 211.134 67.9325C211.134 67.9325 203.52 53.6105 191.388 60.5405C179.256 67.4705 185.068 77.3203 191.647 78.8634C191.647 78.9096 195.26 74.65 192.488 65.6779Z" fill="#0D1D54"/>
<path d="M195.888 82.236L192.83 77.847C192.83 77.847 189.605 74.9179 186.546 76.8121C183.488 78.7063 186.75 87.2348 195.888 82.236Z" fill="#ECBDBB"/>
<path d="M193.911 81.044C193.806 81.0434 193.705 81.0076 193.624 80.9424C191.884 79.6389 189.743 78.9852 187.572 79.0944C187.511 79.1005 187.45 79.0945 187.392 79.0769C187.333 79.0593 187.279 79.0304 187.232 78.9917C187.185 78.9531 187.145 78.9056 187.117 78.8519C187.088 78.7981 187.07 78.7393 187.064 78.6786C187.058 78.6179 187.064 78.5567 187.081 78.4983C187.099 78.4399 187.128 78.3856 187.166 78.3384C187.205 78.2912 187.253 78.2521 187.306 78.2233C187.36 78.1944 187.419 78.1765 187.48 78.1704C189.885 78.0183 192.265 78.7257 194.197 80.1662C194.309 80.2075 194.401 80.2907 194.453 80.3983C194.505 80.5059 194.514 80.6295 194.477 80.7431C194.44 80.8567 194.36 80.9516 194.254 81.0077C194.149 81.0638 194.026 81.0768 193.911 81.044V81.044Z" fill="#404B7C"/>
<path d="M190.196 82.2914C190.091 82.2919 189.989 82.2565 189.906 82.1909C189.824 82.1254 189.767 82.0337 189.743 81.9311C189.542 80.9018 189.517 79.8457 189.669 78.808C189.679 78.7473 189.7 78.689 189.731 78.6364C189.763 78.5839 189.804 78.538 189.854 78.5016C189.903 78.4651 189.959 78.4387 190.019 78.4239C190.078 78.4091 190.14 78.4062 190.201 78.4153C190.261 78.4244 190.32 78.4453 190.372 78.477C190.425 78.5086 190.471 78.5502 190.507 78.5996C190.544 78.6489 190.57 78.705 190.585 78.7645C190.6 78.824 190.603 78.8859 190.593 78.9466C190.458 79.8672 190.476 80.8041 190.649 81.7186C190.663 81.778 190.664 81.8396 190.654 81.8998C190.644 81.9599 190.622 82.0174 190.589 82.0689C190.556 82.1205 190.514 82.165 190.464 82.2001C190.414 82.2351 190.357 82.2599 190.298 82.273H190.196V82.2914Z" fill="#404B7C"/>
<path d="M192.959 90.9216C191.286 90.9216 189.984 88.8518 189.984 86.2C189.976 85.3048 190.142 84.4168 190.473 83.5851C190.492 83.5234 190.524 83.4664 190.566 83.4177C190.608 83.3689 190.66 83.3295 190.718 83.302C190.776 83.2745 190.839 83.2594 190.904 83.2578C190.968 83.2562 191.032 83.2681 191.092 83.2926C191.151 83.3172 191.205 83.354 191.249 83.4006C191.294 83.4472 191.328 83.5025 191.35 83.5631C191.372 83.6237 191.381 83.6882 191.376 83.7524C191.372 83.8167 191.354 83.8793 191.323 83.9362C191.04 84.6568 190.899 85.4256 190.908 86.2C190.908 88.2605 191.832 89.9976 192.959 89.9976C194.086 89.9976 195.01 88.2605 195.01 86.2C195.01 84.1395 194.086 82.4023 192.959 82.4023C192.836 82.4023 192.719 82.3537 192.632 82.267C192.546 82.1804 192.497 82.0629 192.497 81.9403C192.497 81.8178 192.546 81.7003 192.632 81.6136C192.719 81.527 192.836 81.4783 192.959 81.4783C194.631 81.4783 195.934 83.5481 195.934 86.2C195.934 88.8518 194.631 90.9216 192.959 90.9216Z" fill="#F68D88"/>
<path d="M195.435 73.0884C195.435 73.0884 195.925 69.6511 198.549 70.0392C198.495 69.8599 198.508 69.6668 198.586 69.4966C198.665 69.3264 198.803 69.1907 198.974 69.1152C199.556 68.9119 200.222 70.723 200.222 70.723C198.483 71.1819 196.856 71.9864 195.435 73.0884V73.0884Z" fill="#404B7C"/>
<path d="M208.538 70.3534C208.538 70.3534 207.364 67.3966 205.904 68.801C205.858 68.6684 205.773 68.5523 205.662 68.4669C205.55 68.3815 205.416 68.3307 205.276 68.3206C204.583 68.4222 205.017 70.1686 205.017 70.1686C206.18 69.8515 207.414 69.9163 208.538 70.3534V70.3534Z" fill="#404B7C"/>
<path d="M200.221 77.0906C200.911 76.8879 201.267 76.0288 201.015 75.172C200.763 74.3152 200 73.7849 199.309 73.9877C198.619 74.1905 198.263 75.0495 198.515 75.9064C198.767 76.7632 199.53 77.2934 200.221 77.0906Z" fill="#404B7C"/>
<path d="M199.978 75.2512C200.164 75.1966 200.271 75.0014 200.216 74.8154C200.161 74.6293 199.966 74.5228 199.78 74.5775C199.594 74.6321 199.488 74.8272 199.542 75.0133C199.597 75.1994 199.792 75.3059 199.978 75.2512Z" fill="white"/>
<path d="M207.601 74.9246C208.291 74.7218 208.647 73.8628 208.395 73.006C208.143 72.1491 207.38 71.6189 206.689 71.8217C205.999 72.0245 205.643 72.8835 205.895 73.7403C206.147 74.5972 206.91 75.1274 207.601 74.9246Z" fill="#404B7C"/>
<path d="M207.358 73.0826C207.544 73.0279 207.65 72.8328 207.596 72.6467C207.541 72.4607 207.346 72.3541 207.16 72.4088C206.974 72.4634 206.867 72.6586 206.922 72.8446C206.977 73.0307 207.172 73.1372 207.358 73.0826Z" fill="white"/>
<path d="M204.823 79.6765C204.701 79.6765 204.583 79.6278 204.496 79.5412C204.41 79.4546 204.361 79.337 204.361 79.2145C204.361 79.092 204.41 78.9745 204.496 78.8878C204.583 78.8012 204.701 78.7525 204.823 78.7525C204.879 78.7525 206.237 78.6786 206.311 77.7454C206.326 77.6976 206.328 77.6466 206.317 77.5978C206.305 77.549 206.281 77.5042 206.246 77.4681C205.794 77.3104 205.302 77.3104 204.851 77.4681C204.734 77.4997 204.61 77.4845 204.505 77.4258C204.4 77.3671 204.322 77.2695 204.287 77.154L203.363 74.1325C203.346 74.0718 203.34 74.0083 203.347 73.9455C203.354 73.8827 203.373 73.8219 203.404 73.7666C203.434 73.7112 203.475 73.6624 203.525 73.623C203.574 73.5835 203.631 73.5541 203.691 73.5365C203.752 73.5189 203.815 73.5135 203.878 73.5204C203.941 73.5274 204.002 73.5467 204.057 73.5771C204.112 73.6076 204.161 73.6486 204.201 73.698C204.24 73.7473 204.27 73.8039 204.287 73.8646L205.073 76.4795C205.375 76.4029 205.689 76.3879 205.997 76.4356C206.305 76.4832 206.6 76.5924 206.865 76.7567C207.017 76.8866 207.134 77.0533 207.203 77.2409C207.273 77.4285 207.293 77.6308 207.262 77.8285C207.142 79.2145 205.655 79.6765 204.888 79.6765H204.823Z" fill="#404B7C"/>
<path d="M203.973 83.4649C202.729 83.4482 201.512 83.104 200.443 82.467C200.387 82.4392 200.337 82.4003 200.296 82.3525C200.255 82.3047 200.225 82.2491 200.206 82.1891C200.188 82.1291 200.182 82.066 200.188 82.0035C200.195 81.9411 200.214 81.8806 200.245 81.8259C200.276 81.7712 200.318 81.7233 200.368 81.6853C200.417 81.6472 200.475 81.6197 200.536 81.6044C200.597 81.5892 200.66 81.5865 200.722 81.5966C200.784 81.6067 200.843 81.6293 200.896 81.6631C204.112 83.5111 206.44 81.8849 206.44 81.8664C206.489 81.8247 206.546 81.7937 206.607 81.7751C206.668 81.7566 206.733 81.751 206.796 81.7587C206.86 81.7664 206.921 81.7872 206.976 81.8199C207.031 81.8525 207.079 81.8963 207.116 81.9484C207.154 82.0004 207.18 82.0597 207.193 82.1223C207.206 82.185 207.206 82.2498 207.193 82.3124C207.18 82.3751 207.153 82.4343 207.116 82.4864C207.079 82.5385 207.031 82.5822 206.976 82.6148C206.08 83.1863 205.036 83.4819 203.973 83.4649V83.4649Z" fill="#404B7C"/>
<path d="M146.805 109.559C158.032 109.559 167.133 100.458 167.133 89.2307C167.133 78.0038 158.032 68.9027 146.805 68.9027C135.578 68.9027 126.477 78.0038 126.477 89.2307C126.477 100.458 135.578 109.559 146.805 109.559Z" fill="#91B41C"/>
<path d="M147.803 81.5153C149.834 81.5153 151.481 79.8688 151.481 77.8378C151.481 75.8067 149.834 74.1602 147.803 74.1602C145.772 74.1602 144.126 75.8067 144.126 77.8378C144.126 79.8688 145.772 81.5153 147.803 81.5153Z" fill="#F8F8F8"/>
<path d="M140.309 91.5499C140.249 91.5705 140.185 91.5729 140.123 91.5568C140.062 91.5408 140.006 91.507 139.964 91.4597C139.922 91.4124 139.894 91.3537 139.885 91.2908C139.876 91.228 139.885 91.1639 139.912 91.1064C141.002 88.6486 147.101 83.3818 151.444 83.5573C153.393 83.6405 148.736 96.5488 148.764 98.3413C148.764 99.6719 151.739 98.5076 153.292 97.7962C153.358 97.7725 153.429 97.7703 153.497 97.7899C153.564 97.8095 153.623 97.8498 153.666 97.9051C153.709 97.9604 153.734 98.0279 153.736 98.0979C153.739 98.168 153.719 98.237 153.68 98.2951C152.525 100.143 148.699 104.024 144.874 104.283C139.746 104.634 144.338 90.1639 144.338 90.1639L140.309 91.5499Z" fill="#F8F8F8"/>
<path d="M316.987 155.417C316.245 155.417 315.52 155.197 314.903 154.785C314.286 154.372 313.805 153.786 313.522 153.101C313.238 152.415 313.163 151.661 313.308 150.933C313.453 150.206 313.81 149.537 314.335 149.013C314.859 148.488 315.528 148.131 316.256 147.986C316.983 147.841 317.738 147.916 318.423 148.199C319.109 148.483 319.694 148.964 320.107 149.581C320.519 150.198 320.739 150.923 320.739 151.665C320.736 152.66 320.34 153.612 319.637 154.315C318.934 155.018 317.982 155.414 316.987 155.417V155.417ZM316.987 148.838C316.428 148.838 315.882 149.004 315.417 149.314C314.952 149.625 314.589 150.067 314.375 150.583C314.161 151.1 314.105 151.668 314.214 152.217C314.323 152.765 314.593 153.269 314.988 153.665C315.384 154.06 315.887 154.329 316.436 154.438C316.984 154.548 317.553 154.492 318.069 154.278C318.586 154.064 319.028 153.701 319.338 153.236C319.649 152.771 319.815 152.225 319.815 151.665C319.816 151.293 319.744 150.925 319.602 150.58C319.461 150.236 319.253 149.924 318.99 149.66C318.727 149.397 318.415 149.187 318.072 149.045C317.728 148.902 317.36 148.829 316.987 148.829V148.838Z" fill="#91B41C"/>
<path d="M295.264 53.361C294.522 53.361 293.797 53.141 293.18 52.7288C292.563 52.3166 292.082 51.7307 291.798 51.0452C291.514 50.3597 291.44 49.6054 291.585 48.8777C291.73 48.15 292.087 47.4815 292.611 46.9569C293.136 46.4322 293.805 46.075 294.532 45.9302C295.26 45.7855 296.014 45.8597 296.7 46.1437C297.385 46.4276 297.971 46.9085 298.383 47.5254C298.796 48.1423 299.016 48.8676 299.016 49.6096C299.013 50.6038 298.617 51.5565 297.914 52.2595C297.211 52.9625 296.258 53.3586 295.264 53.361V53.361ZM295.264 46.7821C294.705 46.7821 294.158 46.948 293.693 47.2586C293.228 47.5693 292.866 48.0109 292.652 48.5276C292.438 49.0442 292.382 49.6127 292.491 50.1612C292.6 50.7096 292.869 51.2134 293.265 51.6089C293.66 52.0043 294.164 52.2736 294.713 52.3827C295.261 52.4918 295.83 52.4358 296.346 52.2218C296.863 52.0078 297.304 51.6454 297.615 51.1804C297.926 50.7154 298.092 50.1688 298.092 49.6096C298.093 49.2375 298.021 48.8688 297.879 48.5247C297.738 48.1806 297.529 47.8678 297.267 47.6043C297.004 47.3408 296.692 47.1317 296.348 46.989C296.005 46.8463 295.636 46.7729 295.264 46.7729V46.7821Z" fill="#91B41C"/>
<path d="M347.332 99.4686C346.776 99.4595 346.236 99.2865 345.779 98.9714C345.321 98.6562 344.967 98.2129 344.761 97.6973C344.555 97.1816 344.506 96.6164 344.619 96.0728C344.733 95.5292 345.005 95.0314 345.401 94.6419C345.797 94.2524 346.299 93.9885 346.845 93.8834C347.39 93.7784 347.954 93.8368 348.467 94.0514C348.979 94.266 349.416 94.6272 349.724 95.0896C350.032 95.552 350.196 96.095 350.196 96.6504C350.195 97.0241 350.12 97.3938 349.975 97.7382C349.83 98.0826 349.618 98.3948 349.352 98.6569C349.085 98.919 348.77 99.1256 348.423 99.2649C348.076 99.4043 347.705 99.4735 347.332 99.4686V99.4686ZM347.332 94.747C346.959 94.756 346.598 94.8746 346.293 95.0878C345.988 95.3009 345.752 95.5993 345.616 95.9456C345.479 96.2919 345.448 96.6707 345.525 97.0348C345.603 97.3989 345.786 97.7321 346.051 97.9928C346.317 98.2535 346.654 98.4301 347.019 98.5006C347.385 98.571 347.763 98.5322 348.107 98.389C348.45 98.2458 348.744 98.0045 348.951 97.6953C349.159 97.3861 349.27 97.0226 349.272 96.6504C349.271 96.3981 349.219 96.1485 349.121 95.9162C349.022 95.6839 348.879 95.4735 348.698 95.2972C348.518 95.121 348.304 94.9824 348.069 94.8895C347.835 94.7966 347.584 94.7513 347.332 94.7562V94.747Z" fill="#91B41C"/>
<path d="M351.841 66.3617C351.718 66.3617 351.601 66.313 351.514 66.2264C351.427 66.1397 351.379 66.0222 351.379 65.8997V60.5405C351.379 60.4179 351.427 60.3004 351.514 60.2138C351.601 60.1272 351.718 60.0785 351.841 60.0785C351.963 60.0785 352.081 60.1272 352.167 60.2138C352.254 60.3004 352.303 60.4179 352.303 60.5405V65.8997C352.303 66.0222 352.254 66.1397 352.167 66.2264C352.081 66.313 351.963 66.3617 351.841 66.3617Z" fill="#91B41C"/>
<path d="M357.422 68.4591H353.412C353.289 68.4591 353.171 68.4105 353.085 68.3238C352.998 68.2372 352.95 68.1197 352.95 67.9972C352.95 67.8746 352.998 67.7571 353.085 67.6705C353.171 67.5838 353.289 67.5352 353.412 67.5352H357.422C357.544 67.5352 357.662 67.5838 357.748 67.6705C357.835 67.7571 357.884 67.8746 357.884 67.9972C357.884 68.1197 357.835 68.2372 357.748 68.3238C357.662 68.4105 357.544 68.4591 357.422 68.4591Z" fill="#91B41C"/>
<path d="M351.841 75.9158C351.718 75.9158 351.601 75.8672 351.514 75.7805C351.427 75.6939 351.379 75.5764 351.379 75.4538V70.0946C351.379 69.9721 351.427 69.8546 351.514 69.7679C351.601 69.6813 351.718 69.6326 351.841 69.6326C351.963 69.6326 352.081 69.6813 352.167 69.7679C352.254 69.8546 352.303 69.9721 352.303 70.0946V75.4538C352.303 75.5764 352.254 75.6939 352.167 75.7805C352.081 75.8672 351.963 75.9158 351.841 75.9158Z" fill="#91B41C"/>
<path d="M350.27 68.4591H346.26C346.137 68.4591 346.02 68.4105 345.933 68.3238C345.846 68.2372 345.798 68.1197 345.798 67.9972C345.798 67.8746 345.846 67.7571 345.933 67.6705C346.02 67.5838 346.137 67.5352 346.26 67.5352H350.27C350.392 67.5352 350.51 67.5838 350.597 67.6705C350.683 67.7571 350.732 67.8746 350.732 67.9972C350.732 68.1197 350.683 68.2372 350.597 68.3238C350.51 68.4105 350.392 68.4591 350.27 68.4591Z" fill="#91B41C"/>
<path d="M336.179 135.301C336.056 135.301 335.939 135.253 335.852 135.166C335.766 135.079 335.717 134.962 335.717 134.839V129.48C335.717 129.358 335.766 129.24 335.852 129.153C335.939 129.067 336.056 129.018 336.179 129.018C336.301 129.018 336.419 129.067 336.506 129.153C336.592 129.24 336.641 129.358 336.641 129.48V134.839C336.641 134.962 336.592 135.079 336.506 135.166C336.419 135.253 336.301 135.301 336.179 135.301Z" fill="#91B41C"/>
<path d="M341.76 137.399H337.75C337.627 137.399 337.51 137.35 337.423 137.263C337.336 137.177 337.288 137.059 337.288 136.937C337.288 136.814 337.336 136.697 337.423 136.61C337.51 136.523 337.627 136.475 337.75 136.475H341.76C341.882 136.475 342 136.523 342.087 136.61C342.173 136.697 342.222 136.814 342.222 136.937C342.222 137.059 342.173 137.177 342.087 137.263C342 137.35 341.882 137.399 341.76 137.399Z" fill="#91B41C"/>
<path d="M336.179 144.855C336.056 144.855 335.939 144.807 335.852 144.72C335.766 144.634 335.717 144.516 335.717 144.393V139.034C335.717 138.912 335.766 138.794 335.852 138.708C335.939 138.621 336.056 138.572 336.179 138.572C336.301 138.572 336.419 138.621 336.506 138.708C336.592 138.794 336.641 138.912 336.641 139.034V144.393C336.641 144.516 336.592 144.634 336.506 144.72C336.419 144.807 336.301 144.855 336.179 144.855Z" fill="#91B41C"/>
<path d="M334.608 137.399H330.598C330.475 137.399 330.358 137.35 330.271 137.263C330.185 137.177 330.136 137.059 330.136 136.937C330.136 136.814 330.185 136.697 330.271 136.61C330.358 136.523 330.475 136.475 330.598 136.475H334.608C334.731 136.475 334.848 136.523 334.935 136.61C335.021 136.697 335.07 136.814 335.07 136.937C335.07 137.059 335.021 137.177 334.935 137.263C334.848 137.35 334.731 137.399 334.608 137.399Z" fill="#91B41C"/>
<path d="M269.586 91.9842C269.464 91.9842 269.346 91.9355 269.26 91.8489C269.173 91.7622 269.124 91.6447 269.124 91.5222V86.163C269.124 86.0405 269.173 85.9229 269.26 85.8363C269.346 85.7497 269.464 85.701 269.586 85.701C269.709 85.701 269.826 85.7497 269.913 85.8363C270 85.9229 270.048 86.0405 270.048 86.163V91.5222C270.048 91.6447 270 91.7622 269.913 91.8489C269.826 91.9355 269.709 91.9842 269.586 91.9842Z" fill="#91B41C"/>
<path d="M275.167 94.0817H271.157C271.035 94.0817 270.917 94.033 270.83 93.9464C270.744 93.8597 270.695 93.7422 270.695 93.6197C270.695 93.4972 270.744 93.3796 270.83 93.293C270.917 93.2064 271.035 93.1577 271.157 93.1577H275.167C275.29 93.1577 275.407 93.2064 275.494 93.293C275.581 93.3796 275.629 93.4972 275.629 93.6197C275.629 93.7422 275.581 93.8597 275.494 93.9464C275.407 94.033 275.29 94.0817 275.167 94.0817Z" fill="#91B41C"/>
<path d="M269.586 101.538C269.464 101.538 269.346 101.49 269.26 101.403C269.173 101.316 269.124 101.199 269.124 101.076V95.7172C269.124 95.5946 269.173 95.4771 269.26 95.3905C269.346 95.3038 269.464 95.2552 269.586 95.2552C269.709 95.2552 269.826 95.3038 269.913 95.3905C270 95.4771 270.048 95.5946 270.048 95.7172V101.076C270.048 101.199 270 101.316 269.913 101.403C269.826 101.49 269.709 101.538 269.586 101.538Z" fill="#91B41C"/>
<path d="M268.015 94.0817H264.005C263.883 94.0817 263.765 94.033 263.679 93.9464C263.592 93.8597 263.543 93.7422 263.543 93.6197C263.543 93.4972 263.592 93.3796 263.679 93.293C263.765 93.2064 263.883 93.1577 264.005 93.1577H268.015C268.138 93.1577 268.255 93.2064 268.342 93.293C268.429 93.3796 268.477 93.4972 268.477 93.6197C268.477 93.7422 268.429 93.8597 268.342 93.9464C268.255 94.033 268.138 94.0817 268.015 94.0817Z" fill="#91B41C"/>
<path d="M332.677 62.7581H296.706C295.343 62.7581 294.239 63.8626 294.239 65.2252V113.236C294.239 114.599 295.343 115.703 296.706 115.703H332.677C334.04 115.703 335.144 114.599 335.144 113.236V65.2252C335.144 63.8626 334.04 62.7581 332.677 62.7581Z" fill="#91B41C"/>
<path d="M328.5 66.9346H292.529C291.167 66.9346 290.062 68.0391 290.062 69.4016V117.413C290.062 118.775 291.167 119.88 292.529 119.88H328.5C329.863 119.88 330.968 118.775 330.968 117.413V69.4016C330.968 68.0391 329.863 66.9346 328.5 66.9346Z" fill="#0D1D54"/>
<path d="M324.111 71.4067H288.14C286.778 71.4067 285.673 72.5113 285.673 73.8738V121.885C285.673 123.247 286.778 124.352 288.14 124.352H324.111C325.474 124.352 326.579 123.247 326.579 121.885V73.8738C326.579 72.5113 325.474 71.4067 324.111 71.4067Z" fill="#91B41C"/>
<path d="M321.358 82.8274H290.894C290.087 82.8274 289.434 83.481 289.434 84.2873V84.6384C289.434 85.4447 290.087 86.0983 290.894 86.0983H321.358C322.164 86.0983 322.818 85.4447 322.818 84.6384V84.2873C322.818 83.481 322.164 82.8274 321.358 82.8274Z" fill="#F8F8F8"/>
<path d="M321.358 91.7717H290.894C290.087 91.7717 289.434 92.4253 289.434 93.2316V93.5827C289.434 94.389 290.087 95.0426 290.894 95.0426H321.358C322.164 95.0426 322.818 94.389 322.818 93.5827V93.2316C322.818 92.4253 322.164 91.7717 321.358 91.7717Z" fill="#F8F8F8"/>
<path d="M321.358 100.725H290.894C290.087 100.725 289.434 101.379 289.434 102.185V102.536C289.434 103.343 290.087 103.996 290.894 103.996H321.358C322.164 103.996 322.818 103.343 322.818 102.536V102.185C322.818 101.379 322.164 100.725 321.358 100.725Z" fill="#F8F8F8"/>
<path d="M303.368 109.67H290.894C290.087 109.67 289.434 110.323 289.434 111.129V111.481C289.434 112.287 290.087 112.941 290.894 112.941H303.368C304.174 112.941 304.828 112.287 304.828 111.481V111.129C304.828 110.323 304.174 109.67 303.368 109.67Z" fill="#F8F8F8"/>
</svg>
