<svg width="25" height="25" viewBox="0 0 25 25" fill="none" xmlns="http://www.w3.org/2000/svg">
<path d="M11.3476 16.7773C11.4032 16.8302 11.4474 16.8939 11.4776 16.9644C11.5078 17.0349 11.5234 17.1108 11.5234 17.1875C11.5234 17.2642 11.5078 17.3401 11.4776 17.4106C11.4474 17.4811 11.4032 17.5448 11.3476 17.5977L8.22263 20.7227C8.16973 20.7782 8.10609 20.8224 8.03559 20.8526C7.96508 20.8829 7.88918 20.8984 7.81247 20.8984C7.73576 20.8984 7.65986 20.8829 7.58935 20.8526C7.51885 20.8224 7.45522 20.7782 7.40231 20.7227L4.27731 17.5977C4.22345 17.5438 4.18073 17.4798 4.15158 17.4095C4.12243 17.3391 4.10742 17.2637 4.10742 17.1875C4.10742 17.1113 4.12243 17.0359 4.15158 16.9655C4.18073 16.8952 4.22345 16.8312 4.27731 16.7773C4.33118 16.7235 4.39512 16.6808 4.4655 16.6516C4.53587 16.6225 4.6113 16.6075 4.68747 16.6075C4.76364 16.6075 4.83907 16.6225 4.90945 16.6516C4.97982 16.6808 5.04376 16.7235 5.09763 16.7773L7.22653 18.8965V4.6875C7.22653 4.5321 7.28827 4.38306 7.39815 4.27318C7.50803 4.16329 7.65707 4.10156 7.81247 4.10156C7.96787 4.10156 8.11691 4.16329 8.22679 4.27318C8.33668 4.38306 8.39841 4.5321 8.39841 4.6875V18.8965L10.5273 16.7773C10.5802 16.7218 10.6438 16.6776 10.7144 16.6474C10.7849 16.6171 10.8608 16.6016 10.9375 16.6016C11.0142 16.6016 11.0901 16.6171 11.1606 16.6474C11.2311 16.6776 11.2947 16.7218 11.3476 16.7773V16.7773ZM20.7226 7.40234L17.5976 4.27734C17.5447 4.2218 17.4811 4.17758 17.4106 4.14736C17.3401 4.11714 17.2642 4.10156 17.1875 4.10156C17.1108 4.10156 17.0349 4.11714 16.9644 4.14736C16.8938 4.17758 16.8302 4.2218 16.7773 4.27734L13.6523 7.40234C13.5435 7.51112 13.4824 7.65866 13.4824 7.8125C13.4824 7.96634 13.5435 8.11388 13.6523 8.22266C13.7611 8.33144 13.9086 8.39255 14.0625 8.39255C14.2163 8.39255 14.3638 8.33144 14.4726 8.22266L16.6015 6.10352V20.3125C16.6015 20.4679 16.6633 20.6169 16.7731 20.7268C16.883 20.8367 17.0321 20.8984 17.1875 20.8984C17.3429 20.8984 17.4919 20.8367 17.6018 20.7268C17.7117 20.6169 17.7734 20.4679 17.7734 20.3125V6.10352L19.9023 8.22266C20.0111 8.33144 20.1586 8.39255 20.3125 8.39255C20.4663 8.39255 20.6138 8.33144 20.7226 8.22266C20.8314 8.11388 20.8925 7.96634 20.8925 7.8125C20.8925 7.65866 20.8314 7.51112 20.7226 7.40234V7.40234Z" fill="black"/>
</svg>
