<svg width="25" height="25" viewBox="0 0 25 25" fill="none" xmlns="http://www.w3.org/2000/svg">
<path d="M11.25 10.1875L10.125 9.09375C9.875 8.86458 9.57792 8.755 9.23375 8.765C8.89042 8.77583 8.60417 8.89583 8.375 9.125C8.14583 9.35417 8.03125 9.64583 8.03125 10C8.03125 10.3542 8.14583 10.6458 8.375 10.875L11.625 14.125C11.875 14.375 12.1667 14.5 12.5 14.5C12.8333 14.5 13.125 14.375 13.375 14.125L16.6562 10.8438C16.8854 10.6146 16.995 10.3279 16.985 9.98375C16.9742 9.64042 16.8542 9.35417 16.625 9.125C16.3958 8.89583 16.1096 8.78125 15.7662 8.78125C15.4221 8.78125 15.125 8.89583 14.875 9.125L13.75 10.1875V6.21875C13.75 5.86458 13.6304 5.57292 13.3913 5.34375C13.1513 5.11458 12.8542 5 12.5 5C12.1458 5 11.8492 5.11958 11.61 5.35875C11.37 5.59875 11.25 5.89583 11.25 6.25V10.1875ZM7.5 18.75H17.5312C17.8854 18.75 18.1771 18.63 18.4063 18.39C18.6354 18.1508 18.75 17.8542 18.75 17.5C18.75 17.1458 18.63 16.8487 18.39 16.6087C18.1508 16.3696 17.8542 16.25 17.5 16.25H7.46875C7.11458 16.25 6.82292 16.3696 6.59375 16.6087C6.36458 16.8487 6.25 17.1458 6.25 17.5C6.25 17.8542 6.36958 18.1508 6.60875 18.39C6.84875 18.63 7.14583 18.75 7.5 18.75ZM12.5 25C10.7708 25 9.14583 24.6717 7.625 24.015C6.10417 23.3592 4.78125 22.4688 3.65625 21.3438C2.53125 20.2188 1.64083 18.8958 0.985 17.375C0.328333 15.8542 0 14.2292 0 12.5C0 10.7708 0.328333 9.14583 0.985 7.625C1.64083 6.10417 2.53125 4.78125 3.65625 3.65625C4.78125 2.53125 6.10417 1.64042 7.625 0.98375C9.14583 0.327917 10.7708 0 12.5 0C14.2292 0 15.8542 0.327917 17.375 0.98375C18.8958 1.64042 20.2188 2.53125 21.3438 3.65625C22.4688 4.78125 23.3592 6.10417 24.015 7.625C24.6717 9.14583 25 10.7708 25 12.5C25 14.2292 24.6717 15.8542 24.015 17.375C23.3592 18.8958 22.4688 20.2188 21.3438 21.3438C20.2188 22.4688 18.8958 23.3592 17.375 24.015C15.8542 24.6717 14.2292 25 12.5 25ZM12.5 22.5C15.2708 22.5 17.6304 21.5263 19.5788 19.5788C21.5263 17.6304 22.5 15.2708 22.5 12.5C22.5 9.72917 21.5263 7.36958 19.5788 5.42125C17.6304 3.47375 15.2708 2.5 12.5 2.5C9.72917 2.5 7.37 3.47375 5.4225 5.42125C3.47417 7.36958 2.5 9.72917 2.5 12.5C2.5 15.2708 3.47417 17.6304 5.4225 19.5788C7.37 21.5263 9.72917 22.5 12.5 22.5Z" fill="black"/>
</svg>
