<svg width="21" height="24" viewBox="0 0 21 24" fill="none" xmlns="http://www.w3.org/2000/svg">
<path d="M10.4706 19.8335L5.39512 23.2792C5.1709 23.44 4.93649 23.5089 4.69189 23.4859C4.44728 23.463 4.23326 23.3711 4.04981 23.2103C3.86636 23.0495 3.72367 22.8487 3.62175 22.608C3.51984 22.3663 3.49945 22.0962 3.5606 21.7975L4.90591 15.2852L0.411358 10.9092C0.207524 10.7025 0.0803309 10.4668 0.0297799 10.2021C-0.0215864 9.93843 -0.00650275 9.68023 0.0750311 9.42755C0.156565 9.17487 0.278866 8.96812 0.441933 8.80733C0.605001 8.64653 0.829219 8.54316 1.11459 8.49721L7.04618 7.91145L9.33932 1.77814C9.44123 1.50248 9.59941 1.29574 9.81384 1.15791C10.0275 1.02009 10.2464 0.951172 10.4706 0.951172C10.6948 0.951172 10.9141 1.02009 11.1286 1.15791C11.3422 1.29574 11.5 1.50248 11.6019 1.77814L13.895 7.91145L19.8266 8.49721C20.112 8.54316 20.3362 8.64653 20.4993 8.80733C20.6623 8.96812 20.7846 9.17487 20.8662 9.42755C20.9477 9.68023 20.9632 9.93843 20.9126 10.2021C20.8613 10.4668 20.7337 10.7025 20.5298 10.9092L16.0353 15.2852L17.3806 21.7975C17.4417 22.0962 17.4214 22.3663 17.3194 22.608C17.2175 22.8487 17.0748 23.0495 16.8914 23.2103C16.7079 23.3711 16.4939 23.463 16.2493 23.4859C16.0047 23.5089 15.7703 23.44 15.5461 23.2792L10.4706 19.8335Z" fill="#4D4D4D"/>
</svg>
