<svg width="15" height="10" viewBox="0 0 15 10" fill="none" xmlns="http://www.w3.org/2000/svg">
<path d="M14.646 2.60548L8.4525 9.60609C8.37877 9.68918 8.29889 9.7479 8.21287 9.78225C8.12685 9.81715 8.03468 9.83459 7.93637 9.83459C7.83806 9.83459 7.74589 9.81715 7.65987 9.78225C7.57385 9.7479 7.49397 9.68918 7.42024 9.60609L1.20826 2.60548C1.03622 2.41159 0.950195 2.16924 0.950195 1.87841C0.950195 1.58758 1.04236 1.3383 1.22669 1.13057C1.41102 0.922836 1.62608 0.81897 1.87185 0.81897C2.11763 0.81897 2.33268 0.922836 2.51702 1.13057L7.93637 7.23793L13.3557 1.13057C13.5278 0.936685 13.7396 0.839743 13.9913 0.839743C14.2435 0.839743 14.4617 0.94361 14.646 1.15134C14.8304 1.35908 14.9225 1.60143 14.9225 1.87841C14.9225 2.15539 14.8304 2.39774 14.646 2.60548Z" fill="black"/>
</svg>
