<svg width="13" height="15" viewBox="0 0 13 15" fill="none" xmlns="http://www.w3.org/2000/svg">
<path fill-rule="evenodd" clip-rule="evenodd" d="M12.8267 1.21624C12.8817 1.15433 12.9252 1.08083 12.955 0.999948C12.9847 0.919061 13 0.832368 13 0.744816C13 0.657265 12.9847 0.570571 12.955 0.489685C12.9252 0.408798 12.8817 0.335302 12.8267 0.273394C12.7718 0.211486 12.7066 0.162378 12.6348 0.128874C12.563 0.0953695 12.4861 0.078125 12.4084 0.078125C12.3307 0.078125 12.2538 0.0953695 12.182 0.128874C12.1102 0.162378 12.045 0.211486 11.9901 0.273394L6.5 6.46181L1.0099 0.273394C0.954969 0.211486 0.889753 0.162378 0.817978 0.128874C0.746204 0.0953695 0.669276 0.078125 0.591588 0.078125C0.513899 0.078125 0.436972 0.0953695 0.365197 0.128874C0.293422 0.162378 0.228206 0.211486 0.173272 0.273394C0.118338 0.335302 0.074762 0.408798 0.045032 0.489685C0.0153019 0.570571 -5.78824e-10 0.657265 0 0.744816C5.78824e-10 0.832368 0.0153019 0.919061 0.045032 0.999948C0.074762 1.08083 0.118338 1.15433 0.173272 1.21624L5.66455 7.40332L0.173272 13.5904C0.0623277 13.7154 0 13.885 0 14.0618C0 14.2386 0.0623277 14.4082 0.173272 14.5332C0.284216 14.6583 0.434689 14.7285 0.591588 14.7285C0.748486 14.7285 0.898959 14.6583 1.0099 14.5332L6.5 8.34483L11.9901 14.5332C12.101 14.6583 12.2515 14.7285 12.4084 14.7285C12.5653 14.7285 12.7158 14.6583 12.8267 14.5332C12.9377 14.4082 13 14.2386 13 14.0618C13 13.885 12.9377 13.7154 12.8267 13.5904L7.33545 7.40332L12.8267 1.21624V1.21624Z" fill="#6B8418"/>
</svg>
