<svg width="25" height="25" viewBox="0 0 25 25" fill="none" xmlns="http://www.w3.org/2000/svg">
<path d="M12.5 0C5.5875 0 0 5.5875 0 12.5C0 19.4125 5.5875 25 12.5 25C19.4125 25 25 19.4125 25 12.5C25 5.5875 19.4125 0 12.5 0ZM16.375 6.3375C16.55 6.3375 16.725 6.4 16.875 6.5375L18.4625 8.125C18.75 8.4 18.75 8.8375 18.4625 9.1L17.2125 10.35L14.65 7.7875L15.9 6.5375C16.025 6.4 16.2 6.3375 16.375 6.3375ZM13.9125 8.5125L16.4875 11.0875L8.9125 18.6625H6.3375V16.0875L13.9125 8.5125V8.5125Z" fill="#9A9A9A"/>
</svg>
