<svg width="30" height="30" viewBox="0 0 30 30" fill="none" xmlns="http://www.w3.org/2000/svg">
<path d="M25.6038 4.39618C22.8291 1.5015 18.9896 -0.058325 15 0.0016683C11.0104 -0.058325 7.18587 1.5015 4.41118 4.39618C1.5015 7.17087 -0.058325 11.0104 0.0016683 15C-0.058325 18.9896 1.5015 22.8141 4.39618 25.5888C7.17087 28.4985 11.0104 30.0583 15 29.9983C18.9896 30.0583 22.8141 28.4985 25.5888 25.6038C28.4985 22.8291 30.0583 18.9896 29.9983 15C30.0583 11.0104 28.4985 7.17087 25.6038 4.39618ZM22.4992 15V23.999H17.2497V16.4998H12.7503V23.999H7.50083V15H4.50117L15 4.50117L26.2487 15H22.4992Z" fill="#686868"/>
</svg>
