<svg width="10" height="15" viewBox="0 0 10 15" fill="none" xmlns="http://www.w3.org/2000/svg">
<path d="M7.22912 14.2175L0.228506 8.02391C0.145413 7.95018 0.0866938 7.8703 0.0523486 7.78428C0.0174494 7.69826 0 7.60609 0 7.50778C0 7.40947 0.0174494 7.31731 0.0523486 7.23128C0.0866938 7.14526 0.145413 7.06539 0.228506 6.99165L7.22912 0.779671C7.423 0.607628 7.66536 0.521606 7.95619 0.521606C8.24701 0.521606 8.49629 0.613772 8.70403 0.798104C8.91176 0.982436 9.01562 1.19749 9.01562 1.44327C9.01562 1.68904 8.91176 1.9041 8.70403 2.08843L2.59667 7.50778L8.70403 12.9271C8.89791 13.0992 8.99485 13.311 8.99485 13.5627C8.99485 13.8149 8.89099 14.0331 8.68325 14.2175C8.47552 14.4018 8.23316 14.494 7.95619 14.494C7.67921 14.494 7.43685 14.4018 7.22912 14.2175Z" fill="black"/>
</svg>
