<svg width="32" height="28" viewBox="0 0 32 28" fill="none" xmlns="http://www.w3.org/2000/svg">
<path d="M31.4449 1.138C31.281 0.875067 31.0446 0.665102 30.7642 0.533389C30.4837 0.401676 30.1712 0.353828 29.8642 0.395608L1.47681 4.21299L1.47159 4.21178C1.14385 4.25763 0.838261 4.40354 0.596551 4.62957C0.354842 4.85561 0.1888 5.15074 0.121103 5.47468C0.0534057 5.79861 0.087355 6.13554 0.218313 6.43945C0.349272 6.74337 0.570854 6.99945 0.852797 7.17272L0.877572 7.18741L8.94563 13.0915C9.108 13.1851 9.29208 13.2345 9.47949 13.2347C9.66691 13.2349 9.8511 13.1859 10.0137 13.0927L27.4979 3.0367C27.5506 3.00382 27.6094 2.98165 27.6707 2.97146C27.7321 2.96128 27.7948 2.96327 27.8554 2.97734C27.916 2.9914 27.9732 3.01726 28.0238 3.05343C28.0743 3.08961 28.1173 3.13539 28.1502 3.18817C28.1831 3.24094 28.2052 3.29968 28.2154 3.36102C28.2256 3.42237 28.2236 3.48512 28.2095 3.54569C28.1955 3.60626 28.1696 3.66347 28.1334 3.71405C28.0973 3.76463 28.0515 3.80758 27.9987 3.84047L11.2681 15.0979C11.1128 15.2027 10.9877 15.3465 10.9053 15.5148C10.8229 15.6832 10.7861 15.8702 10.7986 16.0572L12.5435 25.9068C12.5444 25.9208 12.5456 25.9334 12.5472 25.9469C12.6156 26.6 13.0449 27.1493 13.6768 27.3263L13.742 27.3415C14.064 27.4182 14.4016 27.3962 14.7109 27.2785C15.0202 27.1608 15.287 26.9527 15.4765 26.6814L31.4092 2.88758C31.5835 2.63058 31.6797 2.32857 31.686 2.01808C31.6923 1.70758 31.6086 1.4019 31.4449 1.138Z" fill="white"/>
</svg>
