<svg width="30" height="30" viewBox="0 0 30 30" fill="none" xmlns="http://www.w3.org/2000/svg">
<path d="M0 30V26.6667H3.33333V0H20V1.66667H26.6667V26.6667H30V30H23.3333V5H20V30H0ZM13.3333 16.6667C13.8056 16.6667 14.2017 16.5067 14.5217 16.1867C14.8406 15.8678 15 15.4722 15 15C15 14.5278 14.8406 14.1317 14.5217 13.8117C14.2017 13.4928 13.8056 13.3333 13.3333 13.3333C12.8611 13.3333 12.4656 13.4928 12.1467 13.8117C11.8267 14.1317 11.6667 14.5278 11.6667 15C11.6667 15.4722 11.8267 15.8678 12.1467 16.1867C12.4656 16.5067 12.8611 16.6667 13.3333 16.6667Z" fill="#686868"/>
</svg>
