<svg width="14" height="10" viewBox="0 0 14 10" fill="none" xmlns="http://www.w3.org/2000/svg">
<path d="M13.6959 1.78651L7.5023 8.78712C7.42857 8.87021 7.34869 8.92893 7.26267 8.96328C7.17665 8.99818 7.08449 9.01562 6.98618 9.01562C6.88787 9.01562 6.7957 8.99818 6.70968 8.96328C6.62366 8.92893 6.54378 8.87021 6.47005 8.78712L0.258064 1.78651C0.0860214 1.59262 0 1.35027 0 1.05944C0 0.768613 0.0921659 0.519333 0.276498 0.3116C0.46083 0.103867 0.675883 1.11875e-07 0.921659 1.11875e-07C1.16743 1.11875e-07 1.38249 0.103867 1.56682 0.3116L6.98618 6.41896L12.4055 0.3116C12.5776 0.117716 12.7894 0.0207731 13.0411 0.0207731C13.2933 0.0207731 13.5115 0.12464 13.6959 0.332373C13.8802 0.540106 13.9724 0.782462 13.9724 1.05944C13.9724 1.33642 13.8802 1.57877 13.6959 1.78651Z" fill="black"/>
</svg>
