<svg width="18" height="20" viewBox="0 0 18 20" fill="none" xmlns="http://www.w3.org/2000/svg">
<path d="M12.5014 12.3981H11.7114L11.4314 12.0938C12.0564 11.2756 12.5131 10.3119 12.769 9.2715C13.0248 8.23115 13.0735 7.13992 12.9114 6.0759C12.4414 2.94297 10.1214 0.441134 7.32144 0.0579701C6.33706 -0.0823742 5.33723 0.0329197 4.39846 0.395029C3.4597 0.757139 2.60688 1.35647 1.90527 2.14715C1.20366 2.93784 0.671846 3.89892 0.350529 4.95686C0.0292113 6.01481 -0.0730946 7.14156 0.0514397 8.25092C0.39144 11.4064 2.61144 14.0209 5.39144 14.5506C6.33559 14.7332 7.30389 14.6784 8.22705 14.3901C9.15021 14.1017 10.0054 13.587 10.7314 12.8827L11.0014 13.1982V14.0885L15.2514 18.8781C15.6614 19.3401 16.3314 19.3401 16.7414 18.8781C17.1514 18.416 17.1514 17.661 16.7414 17.1989L12.5014 12.3981ZM6.50144 12.3981C4.01144 12.3981 2.00144 10.1329 2.00144 7.32682C2.00144 4.5207 4.01144 2.25553 6.50144 2.25553C8.99144 2.25553 11.0014 4.5207 11.0014 7.32682C11.0014 10.1329 8.99144 12.3981 6.50144 12.3981Z" fill="black"/>
</svg>
