<svg width="20" height="20" viewBox="0 0 20 20" fill="none" xmlns="http://www.w3.org/2000/svg">
<g clip-path="url(#clip0_15_253)">
<path d="M10.0975 0.44812L9.47322 2.23179L7.59063 7.61239L1.8905 7.58767L0 7.57877L1.50468 8.72434L6.03947 12.1779L4.25385 17.5901L3.66227 19.3856L5.21642 18.3093L9.90158 15.0635L14.4987 18.434L16.0232 19.5519L15.4791 17.7415L13.8389 12.2817L18.4657 8.95185L20 7.84685L18.1105 7.8053L12.4114 7.67669L10.6742 2.24859L10.0975 0.44812V0.44812ZM10.044 4.43387L11.343 8.49284L11.4805 8.92314L11.9316 8.93305L16.1923 9.028L12.7338 11.518L12.3668 11.7811L12.4974 12.2134L13.7231 16.2952L10.2864 13.7755L9.92233 13.5084L9.55135 13.7656L6.04837 16.1923L7.38387 12.1452L7.52435 11.7169L7.16525 11.4429L3.77602 8.86187L8.03678 8.88067L8.48788 8.88265L8.63725 8.45627L10.044 4.43387V4.43387Z" fill="#6B8418"/>
</g>
<defs>
<clipPath id="clip0_15_253">
<rect width="20" height="20" fill="white"/>
</clipPath>
</defs>
</svg>
