<svg width="18" height="25" viewBox="0 0 18 25" fill="none" xmlns="http://www.w3.org/2000/svg">
<path d="M18 6.02247C18 8.19749 16.43 9.9668 14.5 9.9668C12.57 9.9668 11 8.19749 11 6.02247C11 3.84745 12.57 2.07813 14.5 2.07813C16.43 2.07813 18 3.84745 18 6.02247ZM16 11.984C15.5 12.1306 15 12.2207 14.5 12.2207C13.0421 12.2177 11.6447 11.5637 10.6138 10.402C9.58295 9.24025 9.00264 7.66543 9 6.02247C9 4.36585 9.58 2.867 10.5 1.75131C10.3185 1.50061 10.0897 1.2987 9.83021 1.16028C9.57072 1.02186 9.28709 0.950423 9 0.951178C7.9 0.951178 7 1.96544 7 3.20508V3.5319C4.03 4.52362 2 7.6002 2 11.0938V17.8555L0 20.1094V21.2363H18V20.1094L16 17.8555V11.984ZM9 24.6172C10.11 24.6172 11 23.6142 11 22.3633H7C7 22.9611 7.21071 23.5344 7.58579 23.957C7.96086 24.3797 8.46957 24.6172 9 24.6172Z" fill="#4D4D4D"/>
</svg>
