<svg width="18" height="20" viewBox="0 0 18 20" fill="none" xmlns="http://www.w3.org/2000/svg">
<path d="M12.5014 13.0954H11.7114L11.4314 12.7911C12.0564 11.9729 12.5131 11.0091 12.769 9.96877C13.0248 8.92841 13.0735 7.83718 12.9114 6.77317C12.4414 3.64024 10.1214 1.1384 7.32144 0.755236C6.33706 0.614891 5.33723 0.730185 4.39846 1.09229C3.4597 1.4544 2.60688 2.05373 1.90527 2.84442C1.20366 3.6351 0.671846 4.59619 0.350529 5.65413C0.0292113 6.71207 -0.0730946 7.83883 0.0514397 8.94818C0.39144 12.1037 2.61144 14.7182 5.39144 15.2479C6.33559 15.4305 7.30389 15.3757 8.22705 15.0873C9.15021 14.799 10.0054 14.2843 10.7314 13.58L11.0014 13.8955V14.7858L15.2514 19.5754C15.6614 20.0374 16.3314 20.0374 16.7414 19.5754C17.1514 19.1133 17.1514 18.3582 16.7414 17.8962L12.5014 13.0954ZM6.50144 13.0954C4.01144 13.0954 2.00144 10.8302 2.00144 8.02408C2.00144 5.21797 4.01144 2.95279 6.50144 2.95279C8.99144 2.95279 11.0014 5.21797 11.0014 8.02408C11.0014 10.8302 8.99144 13.0954 6.50144 13.0954Z" fill="#6B8418"/>
</svg>
