<svg width="35" height="29" viewBox="0 0 35 29" fill="none" xmlns="http://www.w3.org/2000/svg">
<path d="M34.3966 27.3432H31.3793V12.785C31.38 12.5348 31.328 12.2872 31.2267 12.0585C31.1253 11.8297 30.9768 11.6249 30.7909 11.4574L18.722 0.474641C18.3883 0.169325 17.9523 0 17.5 0C17.0477 0 16.6117 0.169325 16.278 0.474641L4.20905 11.4574C4.02319 11.6249 3.87473 11.8297 3.77335 12.0585C3.67197 12.2872 3.61995 12.5348 3.62069 12.785V27.3432H0.603448C0.443404 27.3432 0.289914 27.4068 0.176746 27.5199C0.0635774 27.6331 0 27.7866 0 27.9466C0 28.1067 0.0635774 28.2602 0.176746 28.3733C0.289914 28.4865 0.443404 28.5501 0.603448 28.5501H34.3966C34.5566 28.5501 34.7101 28.4865 34.8233 28.3733C34.9364 28.2602 35 28.1067 35 27.9466C35 27.7866 34.9364 27.6331 34.8233 27.5199C34.7101 27.4068 34.5566 27.3432 34.3966 27.3432ZM4.82759 12.785C4.82773 12.7024 4.84527 12.6207 4.87906 12.5454C4.91285 12.47 4.96214 12.4026 5.02371 12.3475L17.0927 1.36473C17.2039 1.26295 17.3492 1.20651 17.5 1.20651C17.6508 1.20651 17.7961 1.26295 17.9073 1.36473L29.9763 12.3475C30.0379 12.4026 30.0871 12.47 30.1209 12.5454C30.1547 12.6207 30.1723 12.7024 30.1724 12.785V27.3432H21.7241V19.4983C21.7241 19.0182 21.5334 18.5577 21.1939 18.2182C20.8544 17.8787 20.3939 17.688 19.9138 17.688H15.0862C14.6061 17.688 14.1456 17.8787 13.8061 18.2182C13.4666 18.5577 13.2759 19.0182 13.2759 19.4983V27.3432H4.82759V12.785ZM20.5172 27.3432H14.4828V19.4983C14.4828 19.3383 14.5463 19.1848 14.6595 19.0716C14.7727 18.9585 14.9262 18.8949 15.0862 18.8949H19.9138C20.0738 18.8949 20.2273 18.9585 20.3405 19.0716C20.4537 19.1848 20.5172 19.3383 20.5172 19.4983V27.3432Z" fill="#6B8418"/>
</svg>
