<svg width="30" height="30" viewBox="0 0 30 30" fill="none" xmlns="http://www.w3.org/2000/svg">
<path d="M12.75 15C12.75 14.4033 12.9871 13.831 13.409 13.409C13.831 12.9871 14.4033 12.75 15 12.75C15.5967 12.75 16.169 12.9871 16.591 13.409C17.0129 13.831 17.25 14.4033 17.25 15C17.25 15.5967 17.0129 16.169 16.591 16.591C16.169 17.0129 15.5967 17.25 15 17.25C14.4033 17.25 13.831 17.0129 13.409 16.591C12.9871 16.169 12.75 15.5967 12.75 15ZM12.75 21.75C12.75 21.1533 12.9871 20.581 13.409 20.159C13.831 19.7371 14.4033 19.5 15 19.5C15.5967 19.5 16.169 19.7371 16.591 20.159C17.0129 20.581 17.25 21.1533 17.25 21.75C17.25 22.3467 17.0129 22.919 16.591 23.341C16.169 23.7629 15.5967 24 15 24C14.4033 24 13.831 23.7629 13.409 23.341C12.9871 22.919 12.75 22.3467 12.75 21.75ZM12.75 8.25C12.75 7.65326 12.9871 7.08097 13.409 6.65901C13.831 6.23705 14.4033 6 15 6C15.5967 6 16.169 6.23705 16.591 6.65901C17.0129 7.08097 17.25 7.65326 17.25 8.25C17.25 8.84674 17.0129 9.41903 16.591 9.84099C16.169 10.2629 15.5967 10.5 15 10.5C14.4033 10.5 13.831 10.2629 13.409 9.84099C12.9871 9.41903 12.75 8.84674 12.75 8.25ZM15 0C16.9698 0 18.9204 0.387987 20.7403 1.14181C22.5601 1.89563 24.2137 3.00052 25.6066 4.3934C26.9995 5.78628 28.1044 7.43986 28.8582 9.25975C29.612 11.0796 30 13.0302 30 15C30 18.9782 28.4196 22.7936 25.6066 25.6066C22.7936 28.4196 18.9782 30 15 30C13.0302 30 11.0796 29.612 9.25975 28.8582C7.43986 28.1044 5.78628 26.9995 4.3934 25.6066C1.58035 22.7936 0 18.9782 0 15C0 11.0218 1.58035 7.20644 4.3934 4.3934C7.20644 1.58035 11.0218 0 15 0ZM15 3C11.8174 3 8.76516 4.26428 6.51472 6.51472C4.26428 8.76516 3 11.8174 3 15C3 18.1826 4.26428 21.2348 6.51472 23.4853C8.76516 25.7357 11.8174 27 15 27C18.1826 27 21.2348 25.7357 23.4853 23.4853C25.7357 21.2348 27 18.1826 27 15C27 11.8174 25.7357 8.76516 23.4853 6.51472C21.2348 4.26428 18.1826 3 15 3Z" fill="#4D4D4D"/>
</svg>
