<svg width="20" height="20" viewBox="0 0 20 20" fill="none" xmlns="http://www.w3.org/2000/svg">
<path d="M14.6654 12.3981H13.7386L13.4101 12.0938C14.1433 11.2756 14.6791 10.3119 14.9792 9.2715C15.2794 8.23115 15.3364 7.13992 15.1463 6.0759C14.595 2.94297 11.8734 0.441134 8.58873 0.0579701C7.43396 -0.0823742 6.26107 0.0329197 5.15981 0.395029C4.05855 0.757139 3.05812 1.35647 2.23506 2.14715C1.412 2.93784 0.788138 3.89892 0.411203 4.95686C0.0342676 6.01481 -0.0857468 7.14156 0.0603435 8.25092C0.459195 11.4064 3.06346 14.0209 6.32466 14.5506C7.43224 14.7332 8.56815 14.6784 9.6511 14.3901C10.7341 14.1017 11.7373 13.587 12.589 12.8827L12.9057 13.1982V14.0885L17.8914 18.8781C18.3723 19.3401 19.1583 19.3401 19.6393 18.8781C20.1202 18.416 20.1202 17.661 19.6393 17.1989L14.6654 12.3981ZM7.6268 12.3981C4.70579 12.3981 2.34788 10.1329 2.34788 7.32682C2.34788 4.5207 4.70579 2.25553 7.6268 2.25553C10.5478 2.25553 12.9057 4.5207 12.9057 7.32682C12.9057 10.1329 10.5478 12.3981 7.6268 12.3981Z" fill="#6B8418"/>
</svg>
